<svg width="16" height="15" viewBox="0 0 16 15" fill="none" xmlns="http://www.w3.org/2000/svg">
<g clip-path="url(#clip0_6_183)">
<path d="M15.1064 11.5719L12.0703 9.5472C11.6851 9.29232 11.1686 9.37619 10.8838 9.73991L9.99938 10.877C9.88573 11.0269 9.67913 11.0703 9.51471 10.979L9.34648 10.8862C8.78881 10.5823 8.09493 10.2038 6.69688 8.80531C5.29884 7.40676 4.91965 6.71236 4.61568 6.15571L4.52344 5.98748C4.43084 5.82309 4.47349 5.61561 4.62341 5.50105L5.75973 4.61694C6.12331 4.33207 6.20729 3.81576 5.95271 3.43036L3.92801 0.394309C3.6671 0.00184727 3.14364 -0.115967 2.73973 0.126838L1.47016 0.889469C1.07125 1.12399 0.778592 1.50379 0.653542 1.9493C0.196374 3.61505 0.540297 6.48988 4.77518 10.7253C8.14393 14.0938 10.6518 14.9996 12.3756 14.9996C12.7723 15.0013 13.1674 14.9497 13.5504 14.8462C13.996 14.7213 14.3759 14.4286 14.6102 14.0295L15.3736 12.7607C15.6168 12.3567 15.499 11.833 15.1064 11.5719ZM14.9429 12.5042L14.1813 13.7738C14.013 14.0618 13.7398 14.2736 13.4189 14.3647C11.8811 14.7869 9.19451 14.4372 5.12885 10.3716C1.0632 6.30592 0.713533 3.61956 1.13573 2.08156C1.227 1.76028 1.43902 1.48671 1.72738 1.31817L2.99694 0.556531C3.1722 0.451077 3.39939 0.502193 3.51261 0.6725L4.61246 2.32375L5.53558 3.70829C5.64613 3.87546 5.60981 4.09952 5.4521 4.22322L4.31552 5.10733C3.96963 5.37181 3.87086 5.85036 4.08381 6.23017L4.17406 6.39415C4.49353 6.98006 4.89071 7.70895 6.34074 9.15875C7.79078 10.6085 8.51944 11.0057 9.10508 11.3252L9.26929 11.4157C9.64907 11.6286 10.1277 11.5298 10.3921 11.1839L11.2762 10.0474C11.4 9.88974 11.6239 9.85345 11.7912 9.96388L14.827 11.9886C14.9974 12.1017 15.0485 12.329 14.9429 12.5042Z" fill="#999999"/>
<path d="M8.99995 2.50137C11.3457 2.50398 13.2467 4.40498 13.2493 6.75075C13.2493 6.88881 13.3612 7.0007 13.4993 7.0007C13.6373 7.0007 13.7492 6.88881 13.7492 6.75075C13.7463 4.12898 11.6217 2.00434 8.99995 2.00146C8.8619 2.00146 8.75 2.11336 8.75 2.25142C8.75 2.38947 8.8619 2.50137 8.99995 2.50137Z" fill="#999999"/>
<path d="M8.99995 4.00113C10.5178 4.00291 11.7478 5.23291 11.7496 6.75073C11.7496 6.88878 11.8615 7.00068 11.9995 7.00068C12.1376 7.00068 12.2495 6.88878 12.2495 6.75073C12.2474 4.95691 10.7937 3.50327 8.99995 3.50122C8.8619 3.50122 8.75 3.61312 8.75 3.75117C8.75 3.88923 8.8619 4.00113 8.99995 4.00113Z" fill="#999999"/>
<path d="M8.99995 5.50113C9.68985 5.50195 10.2489 6.06102 10.2498 6.75095C10.2498 6.88901 10.3617 7.0009 10.4997 7.0009C10.6378 7.0009 10.7497 6.88901 10.7497 6.75095C10.7486 5.78506 9.96585 5.0023 8.99995 5.00122C8.8619 5.00122 8.75 5.11312 8.75 5.25117C8.75 5.38923 8.8619 5.50113 8.99995 5.50113Z" fill="#999999"/>
</g>
<defs>
<clipPath id="clip0_6_183">
<rect width="15" height="15" fill="white" transform="translate(0.5)"/>
</clipPath>
</defs>
</svg>
