<svg width="110" height="110" viewBox="0 0 110 110" fill="none" xmlns="http://www.w3.org/2000/svg">
<path fill-rule="evenodd" clip-rule="evenodd" d="M109 55C109 84.8234 84.8234 109 55 109C25.1766 109 1 84.8234 1 55C1 25.1766 25.1766 1 55 1C84.8234 1 109 25.1766 109 55ZM110 55C110 85.3757 85.3757 110 55 110C24.6243 110 0 85.3757 0 55C0 24.6243 24.6243 0 55 0C85.3757 0 110 24.6243 110 55ZM99 55C99 79.3005 79.3005 99 55 99C30.6995 99 11 79.3005 11 55C11 30.6995 30.6995 11 55 11C79.3005 11 99 30.6995 99 55ZM100 55C100 79.8528 79.8528 100 55 100C30.1472 100 10 79.8528 10 55C10 30.1472 30.1472 10 55 10C79.8528 10 100 30.1472 100 55ZM74.3333 35H44.3333C43.9651 35 43.6666 35.2985 43.6666 35.6667V45.6666H45V36.3333H73.6666V72.9999C73.673 73.3505 73.4025 73.6442 73.0526 73.6666C73.0191 73.6666 72.9857 73.665 72.9522 73.6634C72.9283 73.6623 72.9045 73.6611 72.8806 73.6606L72.8575 73.6599C72.7472 73.6569 72.637 73.6538 72.5286 73.6426C72.5186 73.6426 72.5093 73.6426 72.4993 73.6386C70.3219 73.4006 68.602 71.6823 68.3619 69.5053C68.3619 69.4959 68.3586 69.4859 68.3573 69.4766C68.3411 69.3182 68.3331 69.1591 68.3333 68.9999V67.6666C68.3333 67.2984 68.0348 66.9999 67.6666 66.9999H45V55H43.6666V66.9999H38.3333C37.9652 66.9999 37.6667 67.2984 37.6667 67.6666V68.9999C37.6703 72.3121 40.3545 74.9962 43.6666 74.9999H73.0666C74.1484 74.9716 75.0083 74.0821 74.9999 72.9999V35.6667C74.9999 35.2985 74.7014 35 74.3333 35ZM43.6666 73.6666C41.0906 73.6637 39.0029 71.576 39 68.9999V68.3333H66.9999V68.9999C67.0009 69.2198 67.0135 69.4394 67.0379 69.6579C67.0416 69.6935 67.0473 69.7283 67.053 69.7631V69.7632V69.7633V69.7633V69.7634C67.0566 69.7853 67.0602 69.8072 67.0633 69.8293C67.0853 69.9906 67.1119 70.1513 67.1473 70.3093C67.1556 70.3478 67.1656 70.386 67.1756 70.4244L67.1757 70.4246L67.1886 70.4746C67.2293 70.6353 67.2753 70.7933 67.3286 70.9493C67.3439 70.9939 67.3599 71.0379 67.3766 71.0826C67.4373 71.2479 67.5059 71.4093 67.5813 71.5686L67.5908 71.5885L67.5988 71.6054L67.599 71.606C67.6086 71.6264 67.618 71.6466 67.6279 71.6653C67.7115 71.8342 67.8033 71.9983 67.9033 72.1579C67.9166 72.1793 67.9286 72.2013 67.9419 72.2246C68.0506 72.3948 68.1679 72.5595 68.2933 72.7179L68.3146 72.7466C68.4601 72.9293 68.6159 73.1036 68.7813 73.2686C68.9249 73.4108 69.0737 73.5442 69.2279 73.6686L43.6666 73.6666ZM57.4713 53.4713C57.3463 53.5963 57.1768 53.6666 57 53.6666H38.3333C36.4924 53.6666 35 52.1742 35 50.3333C35 48.4924 36.4924 47 38.3333 47H57C57.1768 47 57.3463 47.0703 57.4713 47.1953L60.1379 49.862C60.3982 50.1223 60.3982 50.5443 60.1379 50.8046L57.4713 53.4713ZM58.7239 50.3333L56.828 48.4373L56.354 50.3333L56.828 52.2293L58.7239 50.3333ZM55.48 48.3333H40.3333V52.3333H55.48L55.1466 51H41.6667V49.6666H55.1466L55.48 48.3333ZM38.3333 48.3333C37.2287 48.3333 36.3333 49.2287 36.3333 50.3333C36.3333 51.4379 37.2287 52.3333 38.3333 52.3333H39V48.3333H38.3333ZM70.3333 63.6666C70.7014 63.6666 70.9999 63.3681 70.9999 63V43C70.9998 42.6319 70.7013 42.3334 70.3331 42.3335C70.1563 42.3335 69.9869 42.4038 69.8619 42.5287L49.862 62.5286C49.6016 62.789 49.6017 63.2111 49.8621 63.4715C49.9871 63.5964 50.1566 63.6666 50.3333 63.6666H70.3333ZM69.6666 44.6093V46.3333H68.3333V47.6667H69.6666V49H68.3333V50.3333H69.6666V51.6667H68.3333V53H69.6666V54.3333H68.3333V55.6667H69.6666V57H68.3333V58.3333H69.6666V59.6666H68.3333V61H66.9999V62.3333H65.6666V61H64.3333V62.3333H62.9999V61H61.6666V62.3333H60.3333V61H59V62.3333H57.6666V61H56.3333V62.3333H55V61H53.6666V62.3333H51.9426L69.6666 44.6093ZM68.3333 61H69.6666V62.3333H68.3333V61ZM66.3333 59.6666H59.9899C59.8132 59.6666 59.6438 59.5964 59.5188 59.4715C59.2584 59.2111 59.2583 58.7891 59.5186 58.5286L65.8619 52.1853C65.9869 52.0604 66.1564 51.9902 66.3331 51.9902C66.7014 51.9901 66.9999 52.2885 66.9999 52.6567V59C66.9999 59.3681 66.7014 59.6666 66.3333 59.6666ZM65.6666 58.3333V54.2667L61.5999 58.3333H65.6666ZM65.6666 39H52.3333V40.3333H65.6666V39ZM50.3333 41.6666H67.6666V43H50.3333V41.6666ZM50.3333 55.6666H46.3333V57H50.3333V55.6666ZM46.3333 58.3333H49V59.6666H46.3333V58.3333Z" fill="#4985FF"/>
</svg>
