<svg width="16" height="13" viewBox="0 0 16 13" fill="none" xmlns="http://www.w3.org/2000/svg">
<path d="M13.6688 0.792236H2.33426C1.32247 0.792236 0.5 1.61471 0.5 2.6265V10.3732C0.5 11.385 1.32247 12.2075 2.33426 12.2075H13.6657C14.6775 12.2075 15.5 11.385 15.5 10.3732V2.6296C15.5031 1.61781 14.6806 0.792236 13.6688 0.792236ZM14.6651 10.3732C14.6651 10.9226 14.2182 11.3695 13.6688 11.3695H2.33426C1.78492 11.3695 1.33799 10.9226 1.33799 10.3732V2.6296C1.33799 2.08026 1.78492 1.63333 2.33426 1.63333H13.6657C14.2151 1.63333 14.662 2.08026 14.662 2.6296V10.3732H14.6651Z" fill="#999999"/>
<path d="M9.96007 6.40371L13.6286 3.11383C13.7993 2.95864 13.8148 2.69483 13.6596 2.52103C13.5044 2.35032 13.2406 2.33481 13.0668 2.48999L8.00786 7.03065L7.0209 6.14921C7.01779 6.1461 7.01469 6.143 7.01469 6.1399C6.99297 6.11817 6.97124 6.09955 6.94641 6.08093L2.93027 2.48689C2.75647 2.3317 2.49265 2.34722 2.33747 2.52103C2.18229 2.69483 2.19781 2.95864 2.37161 3.11383L6.08359 6.43164L2.38713 9.89222C2.21953 10.0505 2.21022 10.3143 2.36851 10.485C2.45231 10.5719 2.56404 10.6185 2.67577 10.6185C2.77819 10.6185 2.88061 10.5812 2.96131 10.5067L6.71364 6.99651L7.73164 7.90588C7.81233 7.97726 7.91165 8.0114 8.01097 8.0114C8.11028 8.0114 8.2127 7.97416 8.2903 7.90278L9.33623 6.96547L13.0668 10.5099C13.1475 10.5874 13.2531 10.6247 13.3555 10.6247C13.4672 10.6247 13.5758 10.5812 13.6596 10.4943C13.8179 10.3267 13.8117 10.0598 13.6441 9.90154L9.96007 6.40371Z" fill="#999999"/>
</svg>
