<svg width="16" height="15" viewBox="0 0 16 15" fill="none" xmlns="http://www.w3.org/2000/svg">
<path d="M7.98959 0C4.95827 0 2.49219 2.46609 2.49219 5.4974C2.49219 6.88992 3.36961 8.85738 5.10018 11.3452C6.3651 13.1638 7.60918 14.5711 7.6616 14.6301L7.98959 15L8.31769 14.6301C8.36999 14.5711 9.61407 13.1638 10.8791 11.3452C12.6096 8.85738 13.4871 6.88992 13.4871 5.4974C13.4871 2.46609 11.0209 0 7.98959 0ZM10.164 10.8373C9.30898 12.0673 8.44483 13.1259 7.98959 13.666C7.53548 13.1274 6.67455 12.0728 5.82013 10.8444C4.2167 8.53935 3.36915 6.69033 3.36915 5.4974C3.36915 2.94971 5.4419 0.876961 7.98959 0.876961C10.5374 0.876961 12.61 2.94971 12.61 5.4974C12.61 6.68907 11.7642 8.53558 10.164 10.8373Z" fill="#999999"/>
<path d="M7.98866 2.03174C6.1996 2.03174 4.74414 3.4872 4.74414 5.27625C4.74414 7.06531 6.1996 8.52088 7.98866 8.52088C9.77782 8.52088 11.2333 7.06531 11.2333 5.27625C11.2333 3.4872 9.77782 2.03174 7.98866 2.03174ZM7.98866 7.64392C6.68323 7.64392 5.6211 6.58179 5.6211 5.27625C5.6211 3.97083 6.68323 2.9087 7.98866 2.9087C9.2942 2.9087 10.3563 3.97083 10.3563 5.27625C10.3563 6.58179 9.2942 7.64392 7.98866 7.64392Z" fill="#999999"/>
</svg>
