<svg width="118" height="118" viewBox="0 0 118 118" fill="none" xmlns="http://www.w3.org/2000/svg">
<g filter="url(#filter0_d_120571_5)">
<mask id="path-1-inside-1_120571_5" fill="white">
<path fill-rule="evenodd" clip-rule="evenodd" d="M106 55C106 80.9574 84.9574 102 59 102C33.0426 102 12 80.9574 12 55C12 29.0426 33.0426 8 59 8C84.9574 8 106 29.0426 106 55ZM114 55C114 85.3757 89.3757 110 59 110C28.6243 110 4 85.3757 4 55C4 24.6243 28.6243 0 59 0C89.3757 0 114 24.6243 114 55ZM103 55C103 79.3005 83.3005 99 59 99C34.6995 99 15 79.3005 15 55C15 30.6995 34.6995 11 59 11C83.3005 11 103 30.6995 103 55ZM104 55C104 79.8528 83.8528 100 59 100C34.1472 100 14 79.8528 14 55C14 30.1472 34.1472 10 59 10C83.8528 10 104 30.1472 104 55ZM78.3333 35H48.3333C47.9651 35 47.6666 35.2985 47.6666 35.6667V45.6666H49V36.3333H77.6666V72.9999C77.673 73.3505 77.4025 73.6442 77.0526 73.6666C77.0191 73.6666 76.9857 73.665 76.9522 73.6634C76.9284 73.6623 76.9045 73.6611 76.8806 73.6606L76.857 73.6599C76.7469 73.6569 76.6369 73.6538 76.5286 73.6426C76.5186 73.6426 76.5093 73.6426 76.4993 73.6386C74.3219 73.4006 72.602 71.6823 72.3619 69.5053C72.3619 69.4959 72.3586 69.4859 72.3573 69.4766C72.3411 69.3182 72.3331 69.1591 72.3333 68.9999V67.6666C72.3333 67.2984 72.0348 66.9999 71.6666 66.9999H49V55H47.6666V66.9999H42.3333C41.9652 66.9999 41.6667 67.2984 41.6667 67.6666V68.9999C41.6703 72.3121 44.3545 74.9962 47.6666 74.9999H77.0666C78.1484 74.9716 79.0083 74.0821 78.9999 72.9999V35.6667C78.9999 35.2985 78.7014 35 78.3333 35ZM47.6666 73.6666C45.0906 73.6637 43.0029 71.576 43 68.9999V68.3333H70.9999V68.9999C71.0009 69.2198 71.0135 69.4394 71.0379 69.6579C71.0416 69.6936 71.0473 69.7285 71.053 69.7634C71.0566 69.7853 71.0602 69.8072 71.0633 69.8293C71.0853 69.9906 71.1119 70.1513 71.1473 70.3093C71.1557 70.348 71.1657 70.3864 71.1758 70.4249L71.1886 70.4746C71.2293 70.6353 71.2753 70.7933 71.3286 70.9493C71.3439 70.9939 71.3599 71.0379 71.3766 71.0826C71.4373 71.2479 71.5059 71.4093 71.5813 71.5686L71.5922 71.5915L71.5989 71.6058L71.599 71.6059L71.599 71.606L71.5992 71.6064C71.605 71.6188 71.6108 71.6311 71.6166 71.6431C71.6203 71.6506 71.6241 71.6581 71.6279 71.6653C71.7115 71.8342 71.8033 71.9983 71.9033 72.1579C71.9083 72.1659 71.9131 72.174 71.9179 72.1823L71.9319 72.2069L71.9419 72.2246C72.0506 72.3948 72.1679 72.5595 72.2933 72.7179L72.3146 72.7466C72.4601 72.9293 72.6159 73.1036 72.7813 73.2686C72.9249 73.4108 73.0737 73.5442 73.2279 73.6686L47.6666 73.6666ZM61.4713 53.4713C61.3463 53.5963 61.1768 53.6666 61 53.6666H42.3333C40.4924 53.6666 39 52.1742 39 50.3333C39 48.4924 40.4924 47 42.3333 47H61C61.1768 47 61.3463 47.0703 61.4713 47.1953L64.1379 49.862C64.3982 50.1223 64.3982 50.5443 64.1379 50.8046L61.4713 53.4713ZM62.7239 50.3333L60.828 48.4373L60.354 50.3333L60.828 52.2293L62.7239 50.3333ZM59.48 48.3333H44.3333V52.3333H59.48L59.1466 51H45.6667V49.6666H59.1466L59.48 48.3333ZM42.3333 48.3333C41.2287 48.3333 40.3333 49.2287 40.3333 50.3333C40.3333 51.4379 41.2287 52.3333 42.3333 52.3333H43V48.3333H42.3333ZM74.3333 63.6666C74.7014 63.6666 74.9999 63.3681 74.9999 63V43C74.9998 42.6319 74.7013 42.3334 74.3331 42.3335C74.1563 42.3335 73.9869 42.4038 73.8619 42.5287L53.862 62.5286C53.6016 62.7891 53.6017 63.2111 53.8621 63.4715C53.9871 63.5964 54.1566 63.6666 54.3333 63.6666H74.3333ZM73.6666 44.6093V46.3333H72.3333V47.6667H73.6666V49H72.3333V50.3333H73.6666V51.6667H72.3333V53H73.6666V54.3333H72.3333V55.6667H73.6666V57H72.3333V58.3333H73.6666V59.6666H72.3333V61H70.9999V62.3333H69.6666V61H68.3333V62.3333H66.9999V61H65.6666V62.3333H64.3333V61H63V62.3333H61.6666V61H60.3333V62.3333H59V61H57.6666V62.3333H55.9426L73.6666 44.6093ZM72.3333 61H73.6666V62.3333H72.3333V61ZM70.3333 59.6666H63.9899C63.8132 59.6666 63.6438 59.5964 63.5188 59.4715C63.2584 59.2111 63.2583 58.7891 63.5186 58.5286L69.8619 52.1853C69.9869 52.0604 70.1564 51.9902 70.3331 51.9902C70.7014 51.9901 70.9999 52.2885 70.9999 52.6567V59C70.9999 59.3681 70.7014 59.6666 70.3333 59.6666ZM69.6666 58.3333V54.2667L65.5999 58.3333H69.6666ZM69.6666 39H56.3333V40.3333H69.6666V39ZM54.3333 41.6666H71.6666V43H54.3333V41.6666ZM54.3333 55.6666H50.3333V57H54.3333V55.6666ZM50.3333 58.3333H53V59.6666H50.3333V58.3333Z"/>
</mask>
<path fill-rule="evenodd" clip-rule="evenodd" d="M106 55C106 80.9574 84.9574 102 59 102C33.0426 102 12 80.9574 12 55C12 29.0426 33.0426 8 59 8C84.9574 8 106 29.0426 106 55ZM114 55C114 85.3757 89.3757 110 59 110C28.6243 110 4 85.3757 4 55C4 24.6243 28.6243 0 59 0C89.3757 0 114 24.6243 114 55ZM103 55C103 79.3005 83.3005 99 59 99C34.6995 99 15 79.3005 15 55C15 30.6995 34.6995 11 59 11C83.3005 11 103 30.6995 103 55ZM104 55C104 79.8528 83.8528 100 59 100C34.1472 100 14 79.8528 14 55C14 30.1472 34.1472 10 59 10C83.8528 10 104 30.1472 104 55ZM78.3333 35H48.3333C47.9651 35 47.6666 35.2985 47.6666 35.6667V45.6666H49V36.3333H77.6666V72.9999C77.673 73.3505 77.4025 73.6442 77.0526 73.6666C77.0191 73.6666 76.9857 73.665 76.9522 73.6634C76.9284 73.6623 76.9045 73.6611 76.8806 73.6606L76.857 73.6599C76.7469 73.6569 76.6369 73.6538 76.5286 73.6426C76.5186 73.6426 76.5093 73.6426 76.4993 73.6386C74.3219 73.4006 72.602 71.6823 72.3619 69.5053C72.3619 69.4959 72.3586 69.4859 72.3573 69.4766C72.3411 69.3182 72.3331 69.1591 72.3333 68.9999V67.6666C72.3333 67.2984 72.0348 66.9999 71.6666 66.9999H49V55H47.6666V66.9999H42.3333C41.9652 66.9999 41.6667 67.2984 41.6667 67.6666V68.9999C41.6703 72.3121 44.3545 74.9962 47.6666 74.9999H77.0666C78.1484 74.9716 79.0083 74.0821 78.9999 72.9999V35.6667C78.9999 35.2985 78.7014 35 78.3333 35ZM47.6666 73.6666C45.0906 73.6637 43.0029 71.576 43 68.9999V68.3333H70.9999V68.9999C71.0009 69.2198 71.0135 69.4394 71.0379 69.6579C71.0416 69.6936 71.0473 69.7285 71.053 69.7634C71.0566 69.7853 71.0602 69.8072 71.0633 69.8293C71.0853 69.9906 71.1119 70.1513 71.1473 70.3093C71.1557 70.348 71.1657 70.3864 71.1758 70.4249L71.1886 70.4746C71.2293 70.6353 71.2753 70.7933 71.3286 70.9493C71.3439 70.9939 71.3599 71.0379 71.3766 71.0826C71.4373 71.2479 71.5059 71.4093 71.5813 71.5686L71.5922 71.5915L71.5989 71.6058L71.599 71.6059L71.599 71.606L71.5992 71.6064C71.605 71.6188 71.6108 71.6311 71.6166 71.6431C71.6203 71.6506 71.6241 71.6581 71.6279 71.6653C71.7115 71.8342 71.8033 71.9983 71.9033 72.1579C71.9083 72.1659 71.9131 72.174 71.9179 72.1823L71.9319 72.2069L71.9419 72.2246C72.0506 72.3948 72.1679 72.5595 72.2933 72.7179L72.3146 72.7466C72.4601 72.9293 72.6159 73.1036 72.7813 73.2686C72.9249 73.4108 73.0737 73.5442 73.2279 73.6686L47.6666 73.6666ZM61.4713 53.4713C61.3463 53.5963 61.1768 53.6666 61 53.6666H42.3333C40.4924 53.6666 39 52.1742 39 50.3333C39 48.4924 40.4924 47 42.3333 47H61C61.1768 47 61.3463 47.0703 61.4713 47.1953L64.1379 49.862C64.3982 50.1223 64.3982 50.5443 64.1379 50.8046L61.4713 53.4713ZM62.7239 50.3333L60.828 48.4373L60.354 50.3333L60.828 52.2293L62.7239 50.3333ZM59.48 48.3333H44.3333V52.3333H59.48L59.1466 51H45.6667V49.6666H59.1466L59.48 48.3333ZM42.3333 48.3333C41.2287 48.3333 40.3333 49.2287 40.3333 50.3333C40.3333 51.4379 41.2287 52.3333 42.3333 52.3333H43V48.3333H42.3333ZM74.3333 63.6666C74.7014 63.6666 74.9999 63.3681 74.9999 63V43C74.9998 42.6319 74.7013 42.3334 74.3331 42.3335C74.1563 42.3335 73.9869 42.4038 73.8619 42.5287L53.862 62.5286C53.6016 62.7891 53.6017 63.2111 53.8621 63.4715C53.9871 63.5964 54.1566 63.6666 54.3333 63.6666H74.3333ZM73.6666 44.6093V46.3333H72.3333V47.6667H73.6666V49H72.3333V50.3333H73.6666V51.6667H72.3333V53H73.6666V54.3333H72.3333V55.6667H73.6666V57H72.3333V58.3333H73.6666V59.6666H72.3333V61H70.9999V62.3333H69.6666V61H68.3333V62.3333H66.9999V61H65.6666V62.3333H64.3333V61H63V62.3333H61.6666V61H60.3333V62.3333H59V61H57.6666V62.3333H55.9426L73.6666 44.6093ZM72.3333 61H73.6666V62.3333H72.3333V61ZM70.3333 59.6666H63.9899C63.8132 59.6666 63.6438 59.5964 63.5188 59.4715C63.2584 59.2111 63.2583 58.7891 63.5186 58.5286L69.8619 52.1853C69.9869 52.0604 70.1564 51.9902 70.3331 51.9902C70.7014 51.9901 70.9999 52.2885 70.9999 52.6567V59C70.9999 59.3681 70.7014 59.6666 70.3333 59.6666ZM69.6666 58.3333V54.2667L65.5999 58.3333H69.6666ZM69.6666 39H56.3333V40.3333H69.6666V39ZM54.3333 41.6666H71.6666V43H54.3333V41.6666ZM54.3333 55.6666H50.3333V57H54.3333V55.6666ZM50.3333 58.3333H53V59.6666H50.3333V58.3333Z" fill="#4985FF"/>
<path d="M47.6666 45.6666H46.6666V46.6666H47.6666V45.6666ZM49 45.6666V46.6666H50V45.6666H49ZM49 36.3333V35.3333H48V36.3333H49ZM77.6666 36.3333H78.6666V35.3333H77.6666V36.3333ZM77.6666 72.9999H76.6666V73.0091L76.6668 73.0182L77.6666 72.9999ZM77.0526 73.6666V74.6666H77.0846L77.1165 74.6645L77.0526 73.6666ZM76.9522 73.6634L76.9047 74.6623L76.9048 74.6623L76.9522 73.6634ZM76.8806 73.6606L76.8525 74.6602L76.8573 74.6603L76.8806 73.6606ZM76.857 73.6599L76.8851 72.6603L76.8848 72.6603L76.857 73.6599ZM76.5286 73.6426L76.6315 72.6479L76.5802 72.6426H76.5286V73.6426ZM76.4993 73.6386L76.8707 72.7101L76.7438 72.6594L76.6079 72.6445L76.4993 73.6386ZM72.3619 69.5053H71.3619V69.5602L71.368 69.6149L72.3619 69.5053ZM72.3573 69.4766L71.3624 69.5781L71.3645 69.5982L71.3673 69.6182L72.3573 69.4766ZM72.3333 68.9999L73.3333 69.001V68.9999H72.3333ZM49 66.9999H48V67.9999H49V66.9999ZM49 55H50V54H49V55ZM47.6666 55V54H46.6666V55H47.6666ZM47.6666 66.9999V67.9999H48.6666V66.9999H47.6666ZM41.6667 68.9999L40.6667 68.9999L40.6667 69.001L41.6667 68.9999ZM47.6666 74.9999L47.6655 75.9999H47.6666V74.9999ZM77.0666 74.9999V75.9999H77.0797L77.0928 75.9996L77.0666 74.9999ZM78.9999 72.9999H77.9999L77.9999 73.0076L78.9999 72.9999ZM43 68.9999L42 68.9999L42 69.0011L43 68.9999ZM47.6666 73.6666L47.6655 74.6666L47.6666 74.6666L47.6666 73.6666ZM43 68.3333V67.3333H42V68.3333H43ZM70.9999 68.3333H71.9999V67.3333H70.9999V68.3333ZM70.9999 68.9999L69.9999 68.9999L69.9999 69.0041L70.9999 68.9999ZM71.0379 69.6579L72.0326 69.5549L72.0317 69.5469L71.0379 69.6579ZM71.053 69.7634L70.0661 69.9247L70.0661 69.9247L71.053 69.7634ZM71.0633 69.8293L72.0541 69.6942L72.0537 69.6911L71.0633 69.8293ZM71.1473 70.3093L72.1246 70.0972L72.1232 70.091L71.1473 70.3093ZM71.1758 70.4249L72.1439 70.1746L72.1433 70.1723L71.1758 70.4249ZM71.1886 70.4746L72.158 70.2292L72.1568 70.2243L71.1886 70.4746ZM71.3286 70.9493L70.3824 71.2727L70.3828 71.274L71.3286 70.9493ZM71.3766 71.0826L72.3154 70.7381L72.3135 70.7329L71.3766 71.0826ZM71.5813 71.5686L70.6772 71.996L70.6792 72.0003L71.5813 71.5686ZM71.5922 71.5915L72.4979 71.1674L72.4943 71.1599L71.5922 71.5915ZM71.5989 71.6058L72.5476 71.2896L72.5292 71.2344L72.5046 71.1818L71.5989 71.6058ZM71.599 71.6059L70.6503 71.9221L70.6926 72.0492L70.7669 72.1606L71.599 71.6059ZM71.599 71.606L72.5038 71.1802L72.4722 71.113L72.4311 71.0513L71.599 71.606ZM71.5992 71.6064L72.5052 71.1831L72.504 71.1806L71.5992 71.6064ZM71.6166 71.6431L72.5145 71.2027L72.5144 71.2025L71.6166 71.6431ZM71.6279 71.6653L72.5242 71.2218L72.5175 71.2081L72.5103 71.1946L71.6279 71.6653ZM71.9033 72.1579L72.7512 71.6278L72.7506 71.6269L71.9033 72.1579ZM71.9179 72.1823L72.7867 71.6871L72.783 71.6808L71.9179 72.1823ZM71.9319 72.2069L72.8018 71.7137L72.8007 71.7117L71.9319 72.2069ZM71.9419 72.2246L71.072 72.7178L71.0849 72.7405L71.099 72.7626L71.9419 72.2246ZM72.2933 72.7179L73.0956 72.121L73.0867 72.1091L73.0775 72.0975L72.2933 72.7179ZM72.3146 72.7466L71.5123 73.3435L71.5221 73.3567L71.5323 73.3695L72.3146 72.7466ZM72.7813 73.2686L72.0749 73.9764L72.0775 73.979L72.7813 73.2686ZM73.2279 73.6686L73.2278 74.6686L76.0608 74.6688L73.8558 72.8902L73.2279 73.6686ZM64.1379 49.862L64.8452 49.155L64.8451 49.1548L64.1379 49.862ZM64.1379 50.8046L64.8451 51.5117L64.8452 51.5116L64.1379 50.8046ZM60.828 48.4373L61.5351 47.7302L60.2862 46.4813L59.8578 48.1948L60.828 48.4373ZM62.7239 50.3333L63.4311 51.0404L64.1382 50.3333L63.4311 49.6262L62.7239 50.3333ZM60.354 50.3333L59.3838 50.0908L59.3232 50.3333L59.3838 50.5758L60.354 50.3333ZM60.828 52.2293L59.8578 52.4718L60.2862 54.1853L61.5351 52.9364L60.828 52.2293ZM44.3333 48.3333V47.3333H43.3333V48.3333H44.3333ZM59.48 48.3333L60.4501 48.5758L60.7607 47.3333H59.48V48.3333ZM44.3333 52.3333H43.3333V53.3333H44.3333V52.3333ZM59.48 52.3333V53.3333H60.7607L60.4501 52.0907L59.48 52.3333ZM59.1466 51L60.1168 50.7574L59.9274 50H59.1466V51ZM45.6667 51H44.6667V52H45.6667V51ZM45.6667 49.6666V48.6666H44.6667V49.6666H45.6667ZM59.1466 49.6666V50.6666H59.9274L60.1168 49.9092L59.1466 49.6666ZM43 52.3333V53.3333H44V52.3333H43ZM43 48.3333H44V47.3333H43V48.3333ZM74.9999 43L75.9999 43L75.9999 42.9998L74.9999 43ZM74.3331 42.3335L74.3331 43.3335L74.3333 43.3335L74.3331 42.3335ZM73.8619 42.5287L73.1551 41.8213L73.1548 41.8216L73.8619 42.5287ZM53.862 62.5286L53.1549 61.8215L53.1547 61.8216L53.862 62.5286ZM53.8621 63.4715L53.1551 64.1787L53.1553 64.1788L53.8621 63.4715ZM73.6666 46.3333V47.3333H74.6666V46.3333H73.6666ZM73.6666 44.6093H74.6666V42.1951L72.9595 43.9022L73.6666 44.6093ZM72.3333 46.3333V45.3333H71.3333V46.3333H72.3333ZM72.3333 47.6667H71.3333V48.6667H72.3333V47.6667ZM73.6666 47.6667H74.6666V46.6667H73.6666V47.6667ZM73.6666 49V50H74.6666V49H73.6666ZM72.3333 49V48H71.3333V49H72.3333ZM72.3333 50.3333H71.3333V51.3333H72.3333V50.3333ZM73.6666 50.3333H74.6666V49.3333H73.6666V50.3333ZM73.6666 51.6667V52.6667H74.6666V51.6667H73.6666ZM72.3333 51.6667V50.6667H71.3333V51.6667H72.3333ZM72.3333 53H71.3333V54H72.3333V53ZM73.6666 53H74.6666V52H73.6666V53ZM73.6666 54.3333V55.3333H74.6666V54.3333H73.6666ZM72.3333 54.3333V53.3333H71.3333V54.3333H72.3333ZM72.3333 55.6667H71.3333V56.6667H72.3333V55.6667ZM73.6666 55.6667H74.6666V54.6667H73.6666V55.6667ZM73.6666 57V58H74.6666V57H73.6666ZM72.3333 57V56H71.3333V57H72.3333ZM72.3333 58.3333H71.3333V59.3333H72.3333V58.3333ZM73.6666 58.3333H74.6666V57.3333H73.6666V58.3333ZM73.6666 59.6666V60.6666H74.6666V59.6666H73.6666ZM72.3333 59.6666V58.6666H71.3333V59.6666H72.3333ZM70.9999 61V60H69.9999V61H70.9999ZM70.9999 62.3333V63.3333H71.9999V62.3333H70.9999ZM69.6666 62.3333H68.6666V63.3333H69.6666V62.3333ZM69.6666 61H70.6666V60H69.6666V61ZM68.3333 61V60H67.3333V61H68.3333ZM68.3333 62.3333V63.3333H69.3333V62.3333H68.3333ZM66.9999 62.3333H65.9999V63.3333H66.9999V62.3333ZM66.9999 61H67.9999V60H66.9999V61ZM65.6666 61V60H64.6666V61H65.6666ZM65.6666 62.3333V63.3333H66.6666V62.3333H65.6666ZM64.3333 62.3333H63.3333V63.3333H64.3333V62.3333ZM64.3333 61H65.3333V60H64.3333V61ZM63 61V60H62V61H63ZM63 62.3333V63.3333H64V62.3333H63ZM61.6666 62.3333H60.6666V63.3333H61.6666V62.3333ZM61.6666 61H62.6666V60H61.6666V61ZM60.3333 61V60H59.3333V61H60.3333ZM60.3333 62.3333V63.3333H61.3333V62.3333H60.3333ZM59 62.3333H58V63.3333H59V62.3333ZM59 61H60V60H59V61ZM57.6666 61V60H56.6666V61H57.6666ZM57.6666 62.3333V63.3333H58.6666V62.3333H57.6666ZM55.9426 62.3333L55.2355 61.6262L53.5284 63.3333H55.9426V62.3333ZM73.6666 61H74.6666V60H73.6666V61ZM73.6666 62.3333V63.3333H74.6666V62.3333H73.6666ZM72.3333 62.3333H71.3333V63.3333H72.3333V62.3333ZM63.5188 59.4715L62.8118 60.1787L62.8119 60.1788L63.5188 59.4715ZM63.5186 58.5286L62.8115 57.8215L62.8114 57.8216L63.5186 58.5286ZM69.8619 52.1853L69.1551 51.478L69.1548 51.4782L69.8619 52.1853ZM70.3331 51.9902L70.3331 52.9902L70.3333 52.9902L70.3331 51.9902ZM70.9999 52.6567L71.9999 52.6567L71.9999 52.6564L70.9999 52.6567ZM69.6666 54.2667H70.6666V51.8524L68.9595 53.5595L69.6666 54.2667ZM69.6666 58.3333V59.3333H70.6666V58.3333H69.6666ZM65.5999 58.3333L64.8928 57.6262L63.1857 59.3333H65.5999V58.3333ZM56.3333 39V38H55.3333V39H56.3333ZM69.6666 39H70.6666V38H69.6666V39ZM56.3333 40.3333H55.3333V41.3333H56.3333V40.3333ZM69.6666 40.3333V41.3333H70.6666V40.3333H69.6666ZM71.6666 41.6666H72.6666V40.6666H71.6666V41.6666ZM54.3333 41.6666V40.6666H53.3333V41.6666H54.3333ZM71.6666 43V44H72.6666V43H71.6666ZM54.3333 43H53.3333V44H54.3333V43ZM50.3333 55.6666V54.6666H49.3333V55.6666H50.3333ZM54.3333 55.6666H55.3333V54.6666H54.3333V55.6666ZM50.3333 57H49.3333V58H50.3333V57ZM54.3333 57V58H55.3333V57H54.3333ZM53 58.3333H54V57.3333H53V58.3333ZM50.3333 58.3333V57.3333H49.3333V58.3333H50.3333ZM53 59.6666V60.6666H54V59.6666H53ZM50.3333 59.6666H49.3333V60.6666H50.3333V59.6666ZM59 103C85.5097 103 107 81.5097 107 55H105C105 80.4051 84.4051 101 59 101V103ZM11 55C11 81.5097 32.4903 103 59 103V101C33.5949 101 13 80.4051 13 55H11ZM59 7C32.4903 7 11 28.4903 11 55H13C13 29.5949 33.5949 9 59 9V7ZM107 55C107 28.4903 85.5097 7 59 7V9C84.4051 9 105 29.5949 105 55H107ZM59 111C89.9279 111 115 85.9279 115 55H113C113 84.8234 88.8234 109 59 109V111ZM3 55C3 85.9279 28.0721 111 59 111V109C29.1766 109 5 84.8234 5 55H3ZM59 -1C28.0721 -1 3 24.0721 3 55H5C5 25.1766 29.1766 1 59 1V-1ZM115 55C115 24.0721 89.9279 -1 59 -1V1C88.8234 1 113 25.1766 113 55H115ZM59 100C83.8528 100 104 79.8528 104 55H102C102 78.7482 82.7482 98 59 98V100ZM14 55C14 79.8528 34.1472 100 59 100V98C35.2518 98 16 78.7482 16 55H14ZM59 10C34.1472 10 14 30.1472 14 55H16C16 31.2518 35.2518 12 59 12V10ZM104 55C104 30.1472 83.8528 10 59 10V12C82.7482 12 102 31.2518 102 55H104ZM59 101C84.4051 101 105 80.4051 105 55H103C103 79.3005 83.3005 99 59 99V101ZM13 55C13 80.4051 33.5949 101 59 101V99C34.6995 99 15 79.3005 15 55H13ZM59 9C33.5949 9 13 29.5949 13 55H15C15 30.6995 34.6995 11 59 11V9ZM105 55C105 29.5949 84.4051 9 59 9V11C83.3005 11 103 30.6995 103 55H105ZM48.3333 36H78.3333V34H48.3333V36ZM48.6666 35.6667C48.6666 35.8508 48.5174 36 48.3333 36V34C47.4129 34 46.6666 34.7462 46.6666 35.6667H48.6666ZM48.6666 45.6666V35.6667H46.6666V45.6666H48.6666ZM49 44.6666H47.6666V46.6666H49V44.6666ZM48 36.3333V45.6666H50V36.3333H48ZM77.6666 35.3333H49V37.3333H77.6666V35.3333ZM78.6666 72.9999V36.3333H76.6666V72.9999H78.6666ZM77.1165 74.6645C77.9998 74.6079 78.6826 73.8668 78.6664 72.9816L76.6668 73.0182C76.6634 72.8343 76.8052 72.6804 76.9886 72.6686L77.1165 74.6645ZM76.9048 74.6623C76.9343 74.6637 76.9915 74.6666 77.0526 74.6666V72.6666C77.0468 72.6666 77.037 72.6663 76.9996 72.6645L76.9048 74.6623ZM76.8573 74.6603C76.867 74.6605 76.8788 74.661 76.9047 74.6623L76.9998 72.6645C76.9779 72.6635 76.9419 72.6617 76.9039 72.6609L76.8573 74.6603ZM76.8289 74.6595L76.8525 74.6602L76.9087 72.661L76.8851 72.6603L76.8289 74.6595ZM76.4257 74.6373C76.5777 74.653 76.7256 74.6566 76.8292 74.6595L76.8848 72.6603C76.7681 72.6571 76.696 72.6546 76.6315 72.6479L76.4257 74.6373ZM76.1279 74.5671C76.2367 74.6106 76.3353 74.629 76.4111 74.6368C76.4469 74.6405 76.4765 74.6417 76.4956 74.6422C76.513 74.6426 76.5284 74.6426 76.5286 74.6426V72.6426C76.5007 72.6426 76.6776 72.6329 76.8707 72.7101L76.1279 74.5671ZM71.368 69.6149C71.6594 72.2578 73.7474 74.3437 76.3906 74.6327L76.6079 72.6445C74.8965 72.4574 73.5446 71.1069 73.3559 69.3956L71.368 69.6149ZM71.3673 69.6182C71.3721 69.6516 71.3775 69.6779 71.3797 69.6881C71.3808 69.6934 71.3819 69.6984 71.3819 69.6985C71.3822 69.7 71.3816 69.6972 71.3809 69.6936C71.3794 69.6868 71.375 69.665 71.3709 69.636C71.3669 69.6067 71.3619 69.5613 71.3619 69.5053H73.3619C73.3619 69.4446 73.3566 69.3944 73.3518 69.3603C73.3471 69.3266 73.3417 69.2999 73.3393 69.2882C73.3381 69.2822 73.337 69.277 73.3368 69.2761C73.3363 69.2738 73.3368 69.2763 73.3374 69.2793C73.3386 69.2847 73.3431 69.3063 73.3472 69.3349L71.3673 69.6182ZM71.3333 68.9989C71.3331 69.1922 71.3428 69.3856 71.3624 69.5781L73.3521 69.3751C73.3394 69.2508 73.3331 69.126 73.3333 69.001L71.3333 68.9989ZM71.3333 67.6666V68.9999H73.3333V67.6666H71.3333ZM71.6666 67.9999C71.4825 67.9999 71.3333 67.8507 71.3333 67.6666H73.3333C73.3333 66.7461 72.5871 65.9999 71.6666 65.9999V67.9999ZM49 67.9999H71.6666V65.9999H49V67.9999ZM48 55V66.9999H50V55H48ZM47.6666 56H49V54H47.6666V56ZM48.6666 66.9999V55H46.6666V66.9999H48.6666ZM42.3333 67.9999H47.6666V65.9999H42.3333V67.9999ZM42.6667 67.6666C42.6667 67.8507 42.5174 67.9999 42.3333 67.9999V65.9999C41.4129 65.9999 40.6667 66.7461 40.6667 67.6666H42.6667ZM42.6667 68.9999V67.6666H40.6667V68.9999H42.6667ZM47.6678 73.9999C44.907 73.9969 42.6697 71.7596 42.6667 68.9988L40.6667 69.001C40.6709 72.8646 43.802 75.9956 47.6655 75.9999L47.6678 73.9999ZM77.0666 73.9999H47.6666V75.9999H77.0666V73.9999ZM77.9999 73.0076C78.0041 73.5447 77.5773 73.9862 77.0404 74.0003L77.0928 75.9996C78.7195 75.957 80.0124 74.6194 79.9999 72.9922L77.9999 73.0076ZM77.9999 35.6667V72.9999H79.9999V35.6667H77.9999ZM78.3333 36C78.1491 36 77.9999 35.8508 77.9999 35.6667H79.9999C79.9999 34.7462 79.2537 34 78.3333 34V36ZM42 69.0011C42.0035 72.1285 44.538 74.663 47.6655 74.6666L47.6678 72.6666C45.6431 72.6643 44.0023 71.0235 44 68.9988L42 69.0011ZM42 68.3333V68.9999H44V68.3333H42ZM70.9999 67.3333H43V69.3333H70.9999V67.3333ZM71.9999 68.9999V68.3333H69.9999V68.9999H71.9999ZM72.0317 69.5469C72.0113 69.364 72.0007 69.18 71.9999 68.9957L69.9999 69.0041C70.001 69.2596 70.0157 69.5149 70.0441 69.769L72.0317 69.5469ZM72.0399 69.6021C72.0369 69.5834 72.0353 69.5733 72.0339 69.5643C72.0327 69.5562 72.0325 69.5538 72.0326 69.5549L70.0433 69.761C70.0505 69.8306 70.0612 69.8942 70.0661 69.9247L72.0399 69.6021ZM72.0537 69.6911C72.0487 69.6555 72.0432 69.6222 72.0399 69.602L70.0661 69.9247C70.07 69.9484 70.0717 69.9588 70.0729 69.9674L72.0537 69.6911ZM72.1232 70.091C72.0958 69.9685 72.0736 69.8371 72.0541 69.6942L70.0724 69.9643C70.0969 70.144 70.1281 70.334 70.1714 70.5275L72.1232 70.091ZM72.1433 70.1723C72.1324 70.1303 72.1278 70.1121 72.1245 70.0972L70.17 70.5213C70.1836 70.5838 70.199 70.6424 70.2082 70.6775L72.1433 70.1723ZM72.1568 70.2243L72.1439 70.1746L70.2076 70.6751L70.2204 70.7248L72.1568 70.2243ZM72.2748 70.6258C72.2314 70.4988 72.193 70.3672 72.158 70.2292L70.2192 70.72C70.2656 70.9033 70.3191 71.0877 70.3824 71.2727L72.2748 70.6258ZM72.3135 70.7329C72.2987 70.6932 72.2859 70.6581 72.2744 70.6246L70.3828 71.274C70.4019 71.3298 70.4212 71.3826 70.4397 71.4323L72.3135 70.7329ZM72.4853 71.1412C72.4211 71.0053 72.3644 70.8718 72.3154 70.7381L70.4378 71.427C70.5101 71.624 70.5908 71.8132 70.6772 71.996L72.4853 71.1412ZM72.4943 71.1599L72.4833 71.1369L70.6792 72.0003L70.6902 72.0232L72.4943 71.1599ZM72.5046 71.1818L72.4979 71.1675L70.6866 72.0156L70.6933 72.0299L72.5046 71.1818ZM72.5477 71.2897L72.5476 71.2896L70.6503 71.9221L70.6503 71.9221L72.5477 71.2897ZM72.4311 71.0513L72.431 71.0512L70.7669 72.1606L70.767 72.1607L72.4311 71.0513ZM72.504 71.1806L72.5038 71.1802L70.6942 72.0318L70.6944 72.0322L72.504 71.1806ZM72.5144 71.2025C72.5135 71.2007 72.5119 71.1973 72.5052 71.1831L70.6932 72.0296C70.6981 72.0402 70.708 72.0615 70.7189 72.0836L72.5144 71.2025ZM72.5103 71.1946C72.5129 71.1996 72.5144 71.2026 72.5145 71.2027L70.7188 72.0834C70.7263 72.0987 70.7353 72.1165 70.7456 72.1359L72.5103 71.1946ZM72.7506 71.6269C72.6684 71.4957 72.593 71.3607 72.5242 71.2218L70.7316 72.1087C70.8301 72.3076 70.9381 72.501 71.0559 72.6889L72.7506 71.6269ZM72.783 71.6808C72.7747 71.6665 72.764 71.6482 72.7512 71.6278L71.0553 72.688C71.0526 72.6837 71.0515 72.6816 71.0527 72.6838L72.783 71.6808ZM72.8007 71.7117L72.7866 71.6871L71.0491 72.6775L71.0631 72.7021L72.8007 71.7117ZM72.8119 71.7314L72.8018 71.7137L71.062 72.7001L71.072 72.7178L72.8119 71.7314ZM73.0775 72.0975C72.9729 71.9653 72.8752 71.8281 72.7849 71.6866L71.099 72.7626C71.226 72.9615 71.3629 73.1537 71.509 73.3384L73.0775 72.0975ZM73.1169 72.1497L73.0956 72.121L71.491 73.3148L71.5123 73.3435L73.1169 72.1497ZM73.4877 72.5608C73.3491 72.4225 73.2186 72.2766 73.0969 72.1237L71.5323 73.3695C71.7016 73.5821 71.8828 73.7847 72.0749 73.9764L73.4877 72.5608ZM73.8558 72.8902C73.7286 72.7877 73.6051 72.6771 73.4851 72.5582L72.0775 73.979C72.2446 74.1446 72.4187 74.3006 72.6001 74.4469L73.8558 72.8902ZM47.6666 74.6666L73.2278 74.6686L73.228 72.6686L47.6667 72.6666L47.6666 74.6666ZM61 54.6666C61.4424 54.6666 61.8662 54.4906 62.1784 54.1784L60.7642 52.7642C60.8264 52.7019 60.9111 52.6666 61 52.6666V54.6666ZM42.3333 54.6666H61V52.6666H42.3333V54.6666ZM38 50.3333C38 52.7265 39.9401 54.6666 42.3333 54.6666V52.6666C41.0447 52.6666 40 51.6219 40 50.3333H38ZM42.3333 46C39.9401 46 38 47.9401 38 50.3333H40C40 49.0447 41.0447 48 42.3333 48V46ZM61 46H42.3333V48H61V46ZM62.1784 46.4882C61.8662 46.176 61.4424 46 61 46V48C60.9111 48 60.8264 47.9646 60.7642 47.9024L62.1784 46.4882ZM64.8451 49.1548L62.1784 46.4882L60.7642 47.9024L63.4308 50.5691L64.8451 49.1548ZM64.8452 51.5116C65.4958 50.8608 65.4958 49.8058 64.8452 49.155L63.4307 50.5689C63.3006 50.4388 63.3006 50.2278 63.4307 50.0976L64.8452 51.5116ZM62.1784 54.1784L64.8451 51.5117L63.4308 50.0975L60.7642 52.7642L62.1784 54.1784ZM60.1208 49.1444L62.0168 51.0404L63.4311 49.6262L61.5351 47.7302L60.1208 49.1444ZM61.3241 50.5758L61.7981 48.6798L59.8578 48.1948L59.3838 50.0908L61.3241 50.5758ZM61.7981 51.9867L61.3241 50.0908L59.3838 50.5758L59.8578 52.4718L61.7981 51.9867ZM62.0168 49.6262L60.1208 51.5222L61.5351 52.9364L63.4311 51.0404L62.0168 49.6262ZM44.3333 49.3333H59.48V47.3333H44.3333V49.3333ZM45.3333 52.3333V48.3333H43.3333V52.3333H45.3333ZM59.48 51.3333H44.3333V53.3333H59.48V51.3333ZM58.1765 51.2425L58.5098 52.5758L60.4501 52.0907L60.1168 50.7574L58.1765 51.2425ZM45.6667 52H59.1466V50H45.6667V52ZM44.6667 49.6666V51H46.6667V49.6666H44.6667ZM59.1466 48.6666H45.6667V50.6666H59.1466V48.6666ZM58.5098 48.0908L58.1765 49.4241L60.1168 49.9092L60.4501 48.5758L58.5098 48.0908ZM41.3333 50.3333C41.3333 49.781 41.781 49.3333 42.3333 49.3333V47.3333C40.6765 47.3333 39.3333 48.6764 39.3333 50.3333H41.3333ZM42.3333 51.3333C41.781 51.3333 41.3333 50.8856 41.3333 50.3333H39.3333C39.3333 51.9902 40.6765 53.3333 42.3333 53.3333V51.3333ZM43 51.3333H42.3333V53.3333H43V51.3333ZM42 48.3333V52.3333H44V48.3333H42ZM42.3333 49.3333H43V47.3333H42.3333V49.3333ZM73.9999 63C73.9999 62.8158 74.1492 62.6666 74.3333 62.6666V64.6666C75.2537 64.6666 75.9999 63.9204 75.9999 63H73.9999ZM73.9999 43V63H75.9999V43H73.9999ZM74.3333 43.3335C74.1493 43.3336 74 43.1843 73.9999 43.0002L75.9999 42.9998C75.9997 42.0794 75.2534 41.3333 74.3329 41.3335L74.3333 43.3335ZM74.5688 43.236C74.5066 43.2982 74.4218 43.3335 74.3331 43.3335V41.3335C73.8909 41.3335 73.4673 41.5093 73.1551 41.8213L74.5688 43.236ZM54.5691 63.2357L74.569 43.2358L73.1548 41.8216L53.1549 61.8215L54.5691 63.2357ZM54.5691 62.7642C54.6993 62.8943 54.6993 63.1054 54.5692 63.2356L53.1547 61.8216C52.5039 62.4727 52.5042 63.5279 53.1551 64.1787L54.5691 62.7642ZM54.3333 62.6666C54.422 62.6666 54.5068 62.7019 54.569 62.7641L53.1553 64.1788C53.4675 64.4908 53.8911 64.6666 54.3333 64.6666V62.6666ZM74.3333 62.6666H54.3333V64.6666H74.3333V62.6666ZM74.6666 46.3333V44.6093H72.6666V46.3333H74.6666ZM72.3333 47.3333H73.6666V45.3333H72.3333V47.3333ZM73.3333 47.6667V46.3333H71.3333V47.6667H73.3333ZM73.6666 46.6667H72.3333V48.6667H73.6666V46.6667ZM74.6666 49V47.6667H72.6666V49H74.6666ZM72.3333 50H73.6666V48H72.3333V50ZM73.3333 50.3333V49H71.3333V50.3333H73.3333ZM73.6666 49.3333H72.3333V51.3333H73.6666V49.3333ZM74.6666 51.6667V50.3333H72.6666V51.6667H74.6666ZM72.3333 52.6667H73.6666V50.6667H72.3333V52.6667ZM73.3333 53V51.6667H71.3333V53H73.3333ZM73.6666 52H72.3333V54H73.6666V52ZM74.6666 54.3333V53H72.6666V54.3333H74.6666ZM72.3333 55.3333H73.6666V53.3333H72.3333V55.3333ZM73.3333 55.6667V54.3333H71.3333V55.6667H73.3333ZM73.6666 54.6667H72.3333V56.6667H73.6666V54.6667ZM74.6666 57V55.6667H72.6666V57H74.6666ZM72.3333 58H73.6666V56H72.3333V58ZM73.3333 58.3333V57H71.3333V58.3333H73.3333ZM73.6666 57.3333H72.3333V59.3333H73.6666V57.3333ZM74.6666 59.6666V58.3333H72.6666V59.6666H74.6666ZM72.3333 60.6666H73.6666V58.6666H72.3333V60.6666ZM73.3333 61V59.6666H71.3333V61H73.3333ZM70.9999 62H72.3333V60H70.9999V62ZM71.9999 62.3333V61H69.9999V62.3333H71.9999ZM69.6666 63.3333H70.9999V61.3333H69.6666V63.3333ZM68.6666 61V62.3333H70.6666V61H68.6666ZM68.3333 62H69.6666V60H68.3333V62ZM69.3333 62.3333V61H67.3333V62.3333H69.3333ZM66.9999 63.3333H68.3333V61.3333H66.9999V63.3333ZM65.9999 61V62.3333H67.9999V61H65.9999ZM65.6666 62H66.9999V60H65.6666V62ZM66.6666 62.3333V61H64.6666V62.3333H66.6666ZM64.3333 63.3333H65.6666V61.3333H64.3333V63.3333ZM63.3333 61V62.3333H65.3333V61H63.3333ZM63 62H64.3333V60H63V62ZM64 62.3333V61H62V62.3333H64ZM61.6666 63.3333H63V61.3333H61.6666V63.3333ZM60.6666 61V62.3333H62.6666V61H60.6666ZM60.3333 62H61.6666V60H60.3333V62ZM61.3333 62.3333V61H59.3333V62.3333H61.3333ZM59 63.3333H60.3333V61.3333H59V63.3333ZM58 61V62.3333H60V61H58ZM57.6666 62H59V60H57.6666V62ZM58.6666 62.3333V61H56.6666V62.3333H58.6666ZM55.9426 63.3333H57.6666V61.3333H55.9426V63.3333ZM72.9595 43.9022L55.2355 61.6262L56.6497 63.0404L74.3737 45.3165L72.9595 43.9022ZM73.6666 60H72.3333V62H73.6666V60ZM74.6666 62.3333V61H72.6666V62.3333H74.6666ZM72.3333 63.3333H73.6666V61.3333H72.3333V63.3333ZM71.3333 61V62.3333H73.3333V61H71.3333ZM63.9899 60.6666H70.3333V58.6666H63.9899V60.6666ZM62.8119 60.1788C63.1241 60.4908 63.5477 60.6666 63.9899 60.6666V58.6666C64.0787 58.6666 64.1634 58.7019 64.2256 58.7641L62.8119 60.1788ZM62.8114 57.8216C62.1606 58.4727 62.1608 59.5279 62.8118 60.1787L64.2258 58.7642C64.3559 58.8943 64.356 59.1054 64.2258 59.2356L62.8114 57.8216ZM69.1548 51.4782L62.8115 57.8215L64.2257 59.2357L70.5691 52.8924L69.1548 51.4782ZM70.3331 50.9902C69.8909 50.9902 69.4673 51.166 69.1551 51.478L70.5688 52.8927C70.5066 52.9549 70.4218 52.9902 70.3331 52.9902V50.9902ZM71.9999 52.6564C71.9997 51.736 71.2534 50.99 70.3329 50.9902L70.3333 52.9902C70.1493 52.9902 70 52.841 69.9999 52.6569L71.9999 52.6564ZM71.9999 59V52.6567H69.9999V59H71.9999ZM70.3333 60.6666C71.2537 60.6666 71.9999 59.9204 71.9999 59H69.9999C69.9999 58.8158 70.1492 58.6666 70.3333 58.6666V60.6666ZM68.6666 54.2667V58.3333H70.6666V54.2667H68.6666ZM66.3071 59.0404L70.3737 54.9738L68.9595 53.5595L64.8928 57.6262L66.3071 59.0404ZM69.6666 57.3333H65.5999V59.3333H69.6666V57.3333ZM56.3333 40H69.6666V38H56.3333V40ZM57.3333 40.3333V39H55.3333V40.3333H57.3333ZM69.6666 39.3333H56.3333V41.3333H69.6666V39.3333ZM68.6666 39V40.3333H70.6666V39H68.6666ZM71.6666 40.6666H54.3333V42.6666H71.6666V40.6666ZM72.6666 43V41.6666H70.6666V43H72.6666ZM54.3333 44H71.6666V42H54.3333V44ZM53.3333 41.6666V43H55.3333V41.6666H53.3333ZM50.3333 56.6666H54.3333V54.6666H50.3333V56.6666ZM51.3333 57V55.6666H49.3333V57H51.3333ZM54.3333 56H50.3333V58H54.3333V56ZM53.3333 55.6666V57H55.3333V55.6666H53.3333ZM53 57.3333H50.3333V59.3333H53V57.3333ZM54 59.6666V58.3333H52V59.6666H54ZM50.3333 60.6666H53V58.6666H50.3333V60.6666ZM49.3333 58.3333V59.6666H51.3333V58.3333H49.3333Z" fill="#4985FF" mask="url(#path-1-inside-1_120571_5)"/>
</g>
<defs>
<filter id="filter0_d_120571_5" x="0" y="0" width="118" height="118" filterUnits="userSpaceOnUse" color-interpolation-filters="sRGB">
<feFlood flood-opacity="0" result="BackgroundImageFix"/>
<feColorMatrix in="SourceAlpha" type="matrix" values="0 0 0 0 0 0 0 0 0 0 0 0 0 0 0 0 0 0 127 0" result="hardAlpha"/>
<feOffset dy="4"/>
<feGaussianBlur stdDeviation="2"/>
<feComposite in2="hardAlpha" operator="out"/>
<feColorMatrix type="matrix" values="0 0 0 0 0 0 0 0 0 0 0 0 0 0 0 0 0 0 0.25 0"/>
<feBlend mode="normal" in2="BackgroundImageFix" result="effect1_dropShadow_120571_5"/>
<feBlend mode="normal" in="SourceGraphic" in2="effect1_dropShadow_120571_5" result="shape"/>
</filter>
</defs>
</svg>
